<?xml version="1.0" encoding="UTF-8"?> <svg xmlns="http://www.w3.org/2000/svg" xmlns:xlink="http://www.w3.org/1999/xlink" width="82px" height="82px" viewBox="0 0 82 82"><path d="M77.2,0C60.8,0,41,11.8,41,26.4c0,0.1,0,0.3,0,0.4c0,0.8,0.6,1.5,1.4,1.7c0.8,0.2,1.6-0.1,2.1-0.9 c4.9-8.4,12.1-14.8,22-19.7c0.9-0.5,2-0.1,2.5,0.8c0.2,0.4,0.3,1,0.1,1.4c-0.2,0.5-0.5,0.9-0.9,1.1c-11.1,5.5-18.6,13-22.8,23 c-0.1,0.1-0.2,0.2-0.2,0.3c-2.7,6.4-4,14.1-4.1,22.7c-0.7-1.7-1.4-3.4-2.3-5c1.5-2.3,2.3-4.7,2.3-7.4c0-14.6-19.8-26.4-36.2-26.4 c-2.6,0-4.8,2.2-4.8,4.8c0,16.4,11.8,36.2,26.4,36.2c3.6,0,6.9-1.4,9.7-4.1c3.3,6.9,4.9,15,4.9,24.6c0,1,0.8,1.9,1.9,1.9 c1,0,1.9-0.8,1.9-1.9V57.8c0-7.3,1-13.8,3-19.4c2.4,1.7,5,2.6,7.9,2.6C70.2,41,82,21.2,82,4.8C82,2.2,79.8,0,77.2,0z"></path></svg> 