<?xml version="1.0" encoding="UTF-8"?> <svg xmlns="http://www.w3.org/2000/svg" xmlns:xlink="http://www.w3.org/1999/xlink" width="82px" height="78px" viewBox="0 0 82 78"><path d="M81.8,29.5c-0.5-1.6-2-2.8-3.7-3l-23.7-2.1L45,2.6C44.3,1,42.7,0,41,0s-3.3,1-4,2.6l-9.4,21.7L4,26.5 c-1.7,0.2-3.2,1.3-3.7,3c-0.5,1.6,0,3.5,1.3,4.6l17.9,15.6l-5.3,23.1c-0.4,1.7,0.3,3.4,1.7,4.5c0.8,0.5,1.7,0.8,2.6,0.8 c0.8,0,1.5-0.2,2.2-0.6L41,65.3l20.4,12.1c1.5,0.9,3.4,0.8,4.8-0.2c1.4-1,2.1-2.8,1.7-4.5l-5.3-23.1l17.9-15.6 C81.8,32.9,82.3,31.1,81.8,29.5z"></path></svg> 