<?xml version="1.0" encoding="UTF-8"?> <svg xmlns="http://www.w3.org/2000/svg" xmlns:xlink="http://www.w3.org/1999/xlink" viewBox="0 0 82 83"><path d="M7.2,29.1H2.4c-1.3,0-2.4,1.1-2.4,2.4c0,1.3,1.1,2.4,2.4,2.4h4.8c1.3,0,2.4-1.1,2.4-2.4C9.6,30.2,8.6,29.1,7.2,29.1z"></path><path d="M8.2,17.1l-3.4-3.4c-0.9-0.9-2.5-0.9-3.4,0c-0.9,0.9-0.9,2.5,0,3.4l3.4,3.4c0.9,0.9,2.5,0.9,3.4,0C9.2,19.5,9.2,18,8.2,17.1 z"></path><path d="M8.2,42.5c-0.9-0.9-2.5-0.9-3.4,0l-3.4,3.4c-0.9,0.9-0.9,2.5,0,3.4c0.9,0.9,2.5,0.9,3.4,0l3.4-3.4C9.2,45,9.2,43.4,8.2,42.5 z"></path><path d="M79.6,29.1h-4.8c-1.3,0-2.4,1.1-2.4,2.4c0,1.3,1.1,2.4,2.4,2.4h4.8c1.3,0,2.4-1.1,2.4-2.4C82,30.2,80.9,29.1,79.6,29.1z"></path><path d="M80.6,13.7c-0.9-0.9-2.5-0.9-3.4,0l-3.4,3.4c-0.9,0.9-0.9,2.5,0,3.4s2.5,0.9,3.4,0l3.4-3.4C81.5,16.1,81.5,14.6,80.6,13.7z"></path><path d="M80.6,45.9l-3.4-3.4c-0.9-0.9-2.5-0.9-3.4,0c-0.9,0.9-0.9,2.5,0,3.4l3.4,3.4c0.9,0.9,2.5,0.9,3.4,0 C81.5,48.4,81.5,46.8,80.6,45.9z"></path><path d="M50.6,29.1c-4,0-7.2,3.2-7.2,7.2v2.4h2.4c4,0,7.2-3.2,7.2-7.2v-2.4H50.6z"></path><path d="M59.2,6.6c-6.8-5.5-15.6-7.6-24.3-5.8C24,3,15.2,12,12.9,22.8c-2,9.2,0.5,18.5,6.6,25.4c2.5,2.8,4,6.3,4.5,9.9h14.6V43.5 h-2.4c-6.6,0-12-5.4-12-12v-4.8c0-1.3,1.1-2.4,2.4-2.4h4.8c3.9,0,7.4,1.9,9.6,4.9c2.2-2.9,5.7-4.9,9.6-4.9h4.8 c1.3,0,2.4,1.1,2.4,2.4v4.8c0,6.6-5.4,12-12,12h-2.4v14.6H58c0.5-3.5,2.1-7.1,4.6-10c4.6-5.2,7.1-12,7.1-19 C69.8,20.4,65.9,12.1,59.2,6.6z"></path><path d="M31.4,29.1H29v2.4c0,4,3.2,7.2,7.2,7.2h2.4v-2.4C38.6,32.3,35.4,29.1,31.4,29.1z"></path><path d="M24.2,62.9v2.4c0,4,3.2,7.2,7.2,7.2h19.2c4,0,7.2-3.2,7.2-7.2v-2.4H24.2z"></path><path d="M31.5,77.3c2.2,2.9,5.6,4.8,9.5,4.8s7.3-1.9,9.5-4.8H31.5z"></path></svg> 