<?xml version="1.0" encoding="UTF-8"?> <svg xmlns="http://www.w3.org/2000/svg" xmlns:xlink="http://www.w3.org/1999/xlink" viewBox="0 0 82 83"><path d="M69.9,48.5l-8.2,10.7c-1.6,2.1-4.2,3.4-6.9,3.4H39.7c-1.2,0-2.2-1-2.2-2.2c0-1.2,1-2.2,2.2-2.2h13.1c2.8,0,5.2-2.3,5.1-5.1 c-0.1-2.7-2.3-4.9-5-4.9H37.8c-4.3-4.2-11-4.7-15.9-1.2l-1.6,1.2v24.5h14.4h2.9h20.3c4.4,0,8.5-2.2,10.9-6l8.4-13.1 c0.5-0.7,0.7-1.5,0.7-2.4C77.9,46.9,72.5,45.1,69.9,48.5L69.9,48.5z"></path><path d="M13.8,43.8H6.3c-1.2,0-2.2,1-2.2,2.2v28.8c0,1.2,1,2.2,2.2,2.2h7.5c1.2,0,2.2-1,2.2-2.2V46C15.9,44.8,15,43.8,13.8,43.8z"></path><path d="M45.4,15.2c-0.4,0.3-0.7,0.8-0.8,1.3c-0.1,0.6,0,1.2,0.4,1.4c0.1,0.1,0.3,0.2,0.4,0.3V15.2z"></path><path d="M46.9,39.2c9.9,0,18-8.1,18-18c0-9.9-8.1-18-18-18c-9.9,0-18,8.1-18,18C28.9,31.2,37,39.2,46.9,39.2z M41.5,27.1 c0.4-0.7,1.3-0.9,2-0.4c0.8,0.5,1.3,0.7,1.9,0.8v-6.1c-0.9-0.4-1.6-0.8-2.2-1.3c-1.2-0.9-1.7-2.6-1.4-4.2c0.3-1.8,1.6-3.3,3.3-3.8 c0.1,0,0.2-0.1,0.3-0.1v-0.9c0-0.8,0.6-1.4,1.4-1.4s1.4,0.6,1.4,1.4v0.7c1.4,0.2,2.4,0.9,2.9,1.5c0.5,0.6,0.5,1.5-0.1,2 c-0.6,0.5-1.5,0.5-2-0.1c0,0-0.3-0.3-0.7-0.4v4.7c0.3,0.1,0.5,0.2,0.8,0.3c2.5,0.9,3.9,3.2,3.5,5.8c-0.3,2-1.9,4.1-4.3,4.7v1 c0,0.8-0.6,1.4-1.4,1.4s-1.4-0.6-1.4-1.4v-0.9c-1.2-0.1-2.1-0.4-3.5-1.3C41.2,28.7,41,27.8,41.5,27.1z"></path><path d="M49.7,25.1c0.1-0.6,0.1-1.9-1.4-2.6v4.6C49.1,26.7,49.5,25.9,49.7,25.1z"></path></svg> 